<svg width="34" height="18" viewBox="0 0 34 18" fill="none" xmlns="http://www.w3.org/2000/svg">
<g clip-path="url(#clip0_110_2)">
<path d="M32.6719 7.67186H4.545L9.20433 3.03512C9.72423 2.51768 9.72622 1.67678 9.20878 1.15689C8.69134 0.636924 7.85037 0.634999 7.33048 1.15237L0.39076 8.05861C0.390295 8.05901 0.389963 8.05947 0.389565 8.05987C-0.129002 8.57731 -0.130662 9.42093 0.389432 9.94009C0.389897 9.94049 0.390229 9.94095 0.390627 9.94135L7.33035 16.8476C7.85018 17.3649 8.69114 17.3631 9.20865 16.8431C9.72609 16.3232 9.72409 15.4823 9.2042 14.9648L4.545 10.3281H32.6719C33.4055 10.3281 34.0001 9.7335 34.0001 8.99998C34.0001 8.26646 33.4055 7.67186 32.6719 7.67186Z" fill="#364844"/>
</g>
<defs>
<clipPath id="clip0_110_2">
<rect width="34" height="18" fill="white"/>
</clipPath>
</defs>
</svg>
